:SAMPLES-PER-SECOND 30
:FULLY-SPECIFIED
:DEGREES
960
root  11.6022 39.299 10.781 50.1755 85.2324 56.5226
RightUpLeg  -7.73933 -14.8142 -16.1732
RightLeg  26.0461 -4.72576 -2.73475
RightFoot  -5.31683 -0.382939 6.58033
RightToes  0.000481921 0.542163 -0.142578
Spine  15.5734 0.502751 4.63284
Spine1  11.6609 3.14219 -6.79218
HEad  11.2155 1.83513 -8.1344
LeftShoulder1  6.02637 -13.1775 -30.0698
LeftArm  -4.06022 -21.6979 -44.5548
LeftForeArm  -167.917 -53.1115 -168.239
LeftHand  -0.25398 0.0180481 5.50724
RightShoulder  5.10142 11.7489 27.4122
RightArm  7.12297 29.3733 67.4184
RightForeArm  176.916 62.1868 161.941
RightHand  -1.42204 5.71402 -15.1739
LeftUpLeg  -4.62848 22.4424 3.45882
LeftLeg  24.1112 6.51753 3.52089
LeftFoot  -8.2171 0.155983 -3.91244
LeftToes  1.06245e-005 4.65869e-005 -8.65517e-006
961
root  11.4664 39.2664 11.1753 70.5237 85.7192 76.7885
RightUpLeg  -7.95787 -16.6118 -16.1098
RightLeg  27.0734 -4.65962 -2.81225
RightFoot  -5.93832 -0.319504 5.91395
RightToes  0.000481921 0.542163 -0.142578
Spine  17.0862 0.617349 4.5131
Spine1  10.872 3.34369 -6.93158
HEad  10.1939 1.21124 -8.7379
LeftShoulder1  6.31535 -13.2125 -31.7399
LeftArm  -4.28524 -19.248 -44.1227
LeftForeArm  -167.586 -52.8328 -168.38
LeftHand  -0.25398 0.0180481 5.50724
RightShoulder  5.12305 11.685 27.7051
RightArm  6.94865 28.0742 66.7525
RightForeArm  178.147 62.5739 161.774
RightHand  -1.31506 5.66311 -14.1302
LeftUpLeg  -5.14315 22.2457 3.67326
LeftLeg  23.8943 5.17771 2.84821
LeftFoot  -7.63445 0.177035 -4.05276
LeftToes  1.06245e-005 4.65869e-005 -8.65517e-006
962
root  11.3985 39.3976 11.548 92.1866 85.9128 97.8505
RightUpLeg  -7.71343 -18.3509 -15.5375
RightLeg  26.1804 -4.81642 -2.79908
RightFoot  -5.82264 -0.30091 5.41884
RightToes  0.000481921 0.542163 -0.142578
Spine  17.7706 0.556029 4.81761
Spine1  9.90833 3.40508 -7.23062
HEad  10.2409 0.601494 -8.62678
LeftShoulder1  6.5123 -13.1862 -32.9785
LeftArm  -3.92304 -17.1158 -44.2832
LeftForeArm  -166.476 -52.816 -168.463
LeftHand  -0.25398 0.0180481 5.50724
RightShoulder  5.16793 11.5512 28.3207
RightArm  6.55969 25.7013 66.1214
RightForeArm  -179.158 62.6463 161.977
RightHand  -1.14728 5.26724 -12.822
LeftUpLeg  -5.36994 21.7612 3.9126
LeftLeg  22.0579 4.24083 2.23797
LeftFoot  -6.31757 0.231739 -4.40918
LeftToes  1.06245e-005 4.65869e-005 -8.65517e-006
963
root  11.3725 39.633 11.887 108.538 85.9599 113.368
RightUpLeg  -7.20957 -19.4575 -14.4737
RightLeg  23.9522 -5.26185 -2.77822
RightFoot  -5.07609 -0.307099 4.9795
RightToes  0.000481921 0.542163 -0.142578
Spine  17.4889 0.441304 5.4099
Spine1  9.66101 3.46752 -7.64361
HEad  10.41 0.172132 -8.11348
LeftShoulder1  6.57721 -13.2342 -33.2531
LeftArm  -3.61768 -15.9513 -45.0316
LeftForeArm  -166.068 -52.7839 -168.505
LeftHand  -0.25398 0.0180481 5.50724
RightShoulder  5.1936 11.4757 28.6743
RightArm  6.18746 23.4351 65.5801
RightForeArm  -176.694 62.2762 162.478
RightHand  -0.994797 4.8247 -11.6366
LeftUpLeg  -5.16946 21.0333 4.30985
LeftLeg  19.1198 3.96584 1.7936
LeftFoot  -4.59469 0.319396 -4.9472
LeftToes  1.06245e-005 4.65869e-005 -8.65517e-006
964
root  11.3699 39.8908 12.1842 118.223 86.036 122.177
RightUpLeg  -6.65483 -20.1495 -13.3041
RightLeg  21.177 -5.65367 -2.61335
RightFoot  -4.06969 -0.309846 4.43825
RightToes  0.000481921 0.542163 -0.142578
Spine  16.7448 0.329722 5.53214
Spine1  9.80062 3.27585 -7.44682
HEad  10.2781 0.31628 -7.71664
LeftShoulder1  6.54868 -13.242 -33.0649
LeftArm  -3.90491 -15.7229 -45.5075
LeftForeArm  -165.776 -52.5152 -168.637
LeftHand  -0.25398 0.0180481 5.50724
RightShoulder  5.16568 11.5147 28.3914
RightArm  6.05521 22.1981 65.2819
RightForeArm  -175.536 61.8279 162.9
RightHand  -0.923318 4.99406 -10.6701
LeftUpLeg  -4.52142 19.2775 4.98136
LeftLeg  15.6951 5.25527 1.09152
LeftFoot  -2.87943 0.422026 -5.47067
LeftToes  1.06245e-005 4.65869e-005 -8.65517e-006
965
root  11.3732 40.0928 12.4296 124.065 86.2271 127.206
RightUpLeg  -6.20042 -20.6897 -12.3675
RightLeg  18.6632 -5.88936 -2.08836
RightFoot  -3.23535 -0.30055 3.92598
RightToes  0.000481921 0.542163 -0.142578
Spine  16.2205 0.13753 5.18109
Spine1  9.4965 2.73847 -6.63238
HEad  9.95063 1.03964 -7.48888
LeftShoulder1  6.46921 -13.1725 -32.7528
LeftArm  -4.66839 -16.1067 -45.3814
LeftForeArm  -165.744 -52.2847 -168.734
LeftHand  -0.25398 0.0180481 5.50724
RightShoulder  5.0954 11.5515 27.824
RightArm  5.99077 22.02 65.0423
RightForeArm  -175.165 61.4407 163.199
RightHand  -0.931186 5.44246 -10.333
LeftUpLeg  -3.79797 15.8121 5.96913
LeftLeg  12.6486 8.58169 -0.050533
LeftFoot  -1.55298 0.51888 -5.94952
LeftToes  1.06245e-005 4.65869e-005 -8.65517e-006
966
root  11.3491 40.1944 12.6263 129.454 86.5198 132.061
RightUpLeg  -5.88446 -20.6755 -11.7596
RightLeg  17.0816 -6.48599 -1.27914
RightFoot  -2.80501 -0.287622 3.5944
RightToes  0.000481921 0.542163 -0.142578
Spine  16.2344 -0.117222 4.6342
Spine1  8.78515 1.98924 -5.30861
HEad  9.43585 1.89824 -7.29198
LeftShoulder1  6.43585 -13.2013 -32.4869
LeftArm  -5.58761 -17.1138 -44.9717
LeftForeArm  -166.277 -52.5471 -168.589
LeftHand  -0.25398 0.0180481 5.50724
RightShoulder  4.97997 11.4673 27.2249
RightArm  5.81217 22.7119 64.4732
RightForeArm  -176.195 61.1625 163.293
RightHand  -0.986336 5.12673 -11.2438
LeftUpLeg  -3.54391 14.0376 6.85898
LeftLeg  10.9409 10.2717 -0.769335
LeftFoot  -0.832071 0.594385 -6.4079
LeftToes  1.06245e-005 4.65869e-005 -8.65517e-006
967
root  11.2711 40.1901 12.79 139.216 86.7531 141.724
RightUpLeg  -5.7483 -20.8205 -11.1437
RightLeg  16.6956 -6.90426 -0.726635
RightFoot  -2.85328 -0.270419 3.3785
RightToes  0.000481921 0.542163 -0.142578
Spine  16.7652 -0.428003 3.94003
Spine1  8.20207 1.04142 -3.32164
HEad  8.6691 2.55489 -7.04857
LeftShoulder1  6.52244 -13.4723 -32.3809
LeftArm  -6.5782 -18.6313 -44.5369
LeftForeArm  -166.753 -53.3235 -168.228
LeftHand  -0.25398 0.0180481 5.50724
RightShoulder  4.86006 11.2984 26.7808
RightArm  5.44436 24.1995 63.2018
RightForeArm  179.914 61.2112 162.908
RightHand  -1.00654 3.83149 -12.9551
LeftUpLeg  -4.07973 15.0313 7.54145
LeftLeg  11.3152 8.95325 -0.562616
LeftFoot  -0.814105 0.619977 -6.67449
LeftToes  1.06245e-005 4.65869e-005 -8.65517e-006
968
root  11.1498 40.0787 12.9278 157.68 86.591 160.386
RightUpLeg  -5.9263 -21.5296 -10.1411
RightLeg  17.5402 -7.00144 -0.787411
RightFoot  -3.49976 -0.251034 3.31373
RightToes  0.000481921 0.542163 -0.142578
Spine  17.8066 -0.922314 3.25048
Spine1  7.65324 -0.22624 -0.695441
HEad  7.90068 3.12954 -6.77678
LeftShoulder1  6.6366 -13.7971 -32.3191
LeftArm  -7.44274 -20.0103 -44.2746
LeftForeArm  -166.75 -54.1139 -167.883
LeftHand  -0.25398 0.0180481 5.50724
RightShoulder  4.79499 11.1924 26.5678
RightArm  4.59218 25.7828 61.3436
RightForeArm  174.854 61.3909 162.318
RightHand  -0.952758 2.58181 -14.0704
LeftUpLeg  -5.72501 17.8909 8.04135
LeftLeg  13.8687 5.2263 0.45889
LeftFoot  -1.58914 0.573064 -6.59913
LeftToes  1.06245e-005 4.65869e-005 -8.65517e-006
969
root  11.0211 39.8459 13.0362 178.589 85.7096 -178.384
RightUpLeg  -6.62162 -23.487 -8.62421
RightLeg  19.6535 -6.13077 -1.46546
RightFoot  -4.84836 -0.234999 3.56846
RightToes  0.000481921 0.542163 -0.142578
Spine  19.1295 -1.576 2.8389
Spine1  7.07219 -1.64831 2.11931
HEad  7.40427 3.71895 -6.44944
LeftShoulder1  6.62015 -13.9752 -31.8317
LeftArm  -7.74116 -20.9188 -44.7652
LeftForeArm  -166.625 -54.5345 -167.703
LeftHand  -0.25398 0.0180481 5.50724
RightShoulder  4.72784 11.1004 26.3036
RightArm  2.92753 26.485 59.2177
RightForeArm  172.497 60.9522 162.4
RightHand  -0.82049 1.69412 -13.5959
LeftUpLeg  -8.28461 18.8624 8.79598
LeftLeg  18.0764 2.7667 1.46388
LeftFoot  -3.03926 0.476022 -6.3011
LeftToes  1.06245e-005 4.65869e-005 -8.65517e-006
970
root  10.9154 39.4996 13.124 -169.489 84.3332 -165.885
RightUpLeg  -7.64025 -25.9414 -7.23267
RightLeg  22.9915 -4.77425 -2.40406
RightFoot  -6.73079 -0.207166 4.01214
RightToes  0.000481921 0.542163 -0.142578
Spine  20.5148 -2.11541 2.20551
Spine1  6.73705 -3.01188 5.06547
HEad  7.17914 4.32452 -6.14717
LeftShoulder1  6.48966 -13.9666 -31.0991
LeftArm  -7.40425 -21.5807 -45.9408
LeftForeArm  -166.576 -54.4702 -167.735
LeftHand  -0.25398 0.0180481 5.50724
RightShoulder  4.53206 10.7976 25.5896
RightArm  0.965267 26.1996 57.1222
RightForeArm  174.27 59.6892 163.396
RightHand  -0.564011 0.448711 -11.2211
LeftUpLeg  -10.7421 16.3604 10.1296
LeftLeg  22.9577 3.39996 1.90998
LeftFoot  -4.6736 0.380095 -6.0443
LeftToes  1.06245e-005 4.65869e-005 -8.65517e-006
971
root  10.8541 39.1103 13.2267 -167.853 82.9053 -163.263
RightUpLeg  -8.28698 -26.4497 -7.02686
RightLeg  27.0067 -5.29222 -3.17528
RightFoot  -8.68654 -0.157395 4.21245
RightToes  0.000481921 0.542163 -0.142578
Spine  22.0742 -2.35084 0.437025
Spine1  6.55178 -4.35612 8.35958
HEad  7.19278 5.05033 -5.99329
LeftShoulder1  6.42401 -13.828 -31.0182
LeftArm  -6.86779 -21.8847 -46.6459
LeftForeArm  -166.361 -53.9742 -167.971
LeftHand  -0.25398 0.0180481 5.50724
RightShoulder  4.24454 10.1735 24.9101
RightArm  -0.289564 25.3356 55.4681
RightForeArm  178.642 58.197 164.682
RightHand  -0.257743 -1.40558 -7.18431
LeftUpLeg  -12.3808 14.2225 11.0233
LeftLeg  27.1968 3.45059 2.25832
LeftFoot  -5.93778 0.320371 -6.0363
LeftToes  1.06245e-005 4.65869e-005 -8.65517e-006
